<svg width="800" height="400" viewBox="0 0 800 400" xmlns="http://www.w3.org/2000/svg"><defs><pattern id="satori_pattern_id_1" x="0" y="0" width="0.125" height="0.25" patternUnits="objectBoundingBox"><radialGradient id="satori_radial_id_1" spreadMethod="pad"><stop offset="0" stop-color="lightgray"/><stop offset="0.02" stop-color="lightgray"/><stop offset="0" stop-color="transparent"/><stop offset="1" stop-color="transparent"/></radialGradient><mask id="satori_mask_id_1"><rect x="0" y="0" width="100" height="100" fill="#fff"/></mask><rect x="0" y="0" width="100" height="100" fill="transparent"/><circle cx="75" cy="75" width="100" height="100" r="106.06601717798213" fill="url(#satori_radial_id_1)" mask="url(#satori_mask_id_1)"/></pattern><pattern id="satori_pattern_id_0" x="0" y="0" width="0.125" height="0.25" patternUnits="objectBoundingBox"><radialGradient id="satori_radial_id_0" spreadMethod="pad"><stop offset="0" stop-color="lightgray"/><stop offset="0.02" stop-color="lightgray"/><stop offset="0" stop-color="transparent"/><stop offset="1" stop-color="transparent"/></radialGradient><mask id="satori_mask_id_0"><rect x="0" y="0" width="100" height="100" fill="#fff"/></mask><rect x="0" y="0" width="100" height="100" fill="transparent"/><circle cx="25" cy="25" width="100" height="100" r="106.06601717798213" fill="url(#satori_radial_id_0)" mask="url(#satori_mask_id_0)"/></pattern></defs><mask id="satori_om-id"><rect x="0" y="0" width="800" height="400" fill="#fff"/></mask><rect x="0" y="0" width="800" height="400" fill="white"/><rect x="0" y="0" width="800" height="400" fill="url(#satori_pattern_id_1)"/><rect x="0" y="0" width="800" height="400" fill="url(#satori_pattern_id_0)"/><mask id="satori_om-id-0"><rect x="279" y="109" width="242" height="80" fill="#fff"/></mask><clipPath id="satori_cp-id-0-0"><rect x="354" y="109" width="92" height="80"/></clipPath><mask id="satori_om-id-0-0"><rect x="354" y="109" width="92" height="80" fill="#fff"/></mask><image x="354" y="109" width="92" height="80" href="data:image/svg+xml;utf8,%3Csvg  fill=%22black%22 xmlns=%22http://www.w3.org/2000/svg%22 width=%2292.3076923076923%22 height=%2280%22 viewBox=%220 0 75 65%22%3E%3Cpath d=%22M37.59.25l36.95 64H.64l36.95-64z%22%3E%3C/path%3E%3C/svg%3E" preserveAspectRatio="none" clip-path="url(#satori_cp-id-0-0)" mask="url(#satori_om-id-0-0)"/><mask id="satori_om-id-0-0-0"><rect x="354" y="109" width="0" height="80" fill="#fff"/></mask><mask id="satori_om-id-1"><rect x="292" y="219" width="216" height="72" fill="#fff"/></mask><mask id="satori_om-id-1-0"><rect x="292" y="219" width="216" height="72" fill="#fff"/></mask><g  ><path fill="black" d="M300.7 270L294.5 270L294.5 240.9L300.7 240.9L300.7 252.9L313.2 252.9L313.2 240.9L319.3 240.9L319.3 270L313.2 270L313.2 258.0L300.7 258.0L300.7 270ZM334.2 270.4L334.2 270.4Q330.8 270.4 328.4 269.1Q326.0 267.7 324.7 265.2Q323.4 262.6 323.4 259.2L323.4 259.2Q323.4 255.8 324.7 253.3Q326.0 250.7 328.4 249.3Q330.8 247.9 334.0 247.9L334.0 247.9Q336.1 247.9 338.0 248.6Q339.9 249.3 341.3 250.7Q342.7 252.0 343.4 254.1Q344.2 256.2 344.2 259.0L344.2 259.0L344.2 260.6L325.8 260.6L325.8 256.9L338.5 256.9Q338.5 255.6 338.0 254.6Q337.4 253.6 336.4 253.0Q335.4 252.4 334.1 252.4L334.1 252.4Q332.7 252.4 331.6 253.0Q330.6 253.7 330.0 254.7Q329.4 255.8 329.4 257.1L329.4 257.1L329.4 260.7Q329.4 262.3 330.0 263.5Q330.6 264.6 331.7 265.3Q332.8 265.9 334.3 265.9L334.3 265.9Q335.3 265.9 336.1 265.6Q337.0 265.3 337.6 264.8Q338.2 264.2 338.5 263.4L338.5 263.4L344.1 263.8Q343.7 265.8 342.3 267.3Q341.0 268.8 339.0 269.6Q336.9 270.4 334.2 270.4ZM354.4 270.4L354.4 270.4Q352.3 270.4 350.7 269.7Q349.0 268.9 348.1 267.5Q347.1 266.1 347.1 263.9L347.1 263.9Q347.1 262.1 347.8 260.9Q348.5 259.6 349.6 258.9Q350.8 258.1 352.2 257.7Q353.7 257.3 355.3 257.2L355.3 257.2Q357.2 257.0 358.4 256.8Q359.6 256.6 360.1 256.3Q360.6 255.9 360.6 255.2L360.6 255.2L360.6 255.1Q360.6 253.8 359.8 253.1Q358.9 252.3 357.4 252.3L357.4 252.3Q355.8 252.3 354.8 253.0Q353.8 253.8 353.5 254.8L353.5 254.8L347.9 254.4Q348.3 252.4 349.6 250.9Q350.8 249.5 352.8 248.7Q354.8 247.9 357.4 247.9L357.4 247.9Q359.2 247.9 360.9 248.3Q362.6 248.8 363.9 249.6Q365.2 250.5 365.9 251.9Q366.7 253.3 366.7 255.3L366.7 255.3L366.7 270L360.9 270L360.9 267.0L360.8 267.0Q360.2 268.0 359.4 268.8Q358.5 269.5 357.2 270.0Q356.0 270.4 354.4 270.4ZM356.1 266.2L356.1 266.2Q357.5 266.2 358.5 265.7Q359.5 265.2 360.1 264.3Q360.7 263.4 360.7 262.2L360.7 262.2L360.7 259.9Q360.4 260.1 359.9 260.2Q359.4 260.4 358.8 260.5Q358.2 260.6 357.6 260.7Q357.0 260.8 356.5 260.9L356.5 260.9Q355.4 261.0 354.6 261.4Q353.8 261.7 353.4 262.3Q352.9 262.9 352.9 263.7L352.9 263.7Q352.9 264.9 353.8 265.6Q354.7 266.2 356.1 266.2ZM371.4 240.9L377.4 240.9L377.4 270L371.4 270L371.4 240.9ZM380.7 248.2L393.9 248.2L393.9 252.7L380.7 252.7L380.7 248.2ZM383.7 264.1L383.7 243.0L389.8 243.0L389.8 263.3Q389.8 264.1 390.0 264.6Q390.3 265.1 390.7 265.2Q391.2 265.4 391.8 265.4L391.8 265.4Q392.2 265.4 392.7 265.3Q393.1 265.3 393.3 265.2L393.3 265.2L394.3 269.7Q393.8 269.9 393.0 270.1Q392.2 270.3 391.0 270.3L391.0 270.3Q388.8 270.4 387.1 269.7Q385.5 269.0 384.6 267.6Q383.7 266.2 383.7 264.1L383.7 264.1ZM404.3 257.4L404.3 257.4L404.3 270L398.3 270L398.3 240.9L404.1 240.9L404.1 252.0L404.4 252.0Q405.1 250.1 406.8 249.0Q408.4 247.9 410.9 247.9L410.9 247.9Q413.2 247.9 414.9 248.9Q416.6 249.9 417.5 251.7Q418.5 253.6 418.4 256.1L418.4 256.1L418.4 270L412.4 270L412.4 257.2Q412.4 255.2 411.4 254.0Q410.4 252.9 408.5 252.9L408.5 252.9Q407.3 252.9 406.3 253.5Q405.4 254.0 404.8 255.0Q404.3 256.0 404.3 257.4ZM435.8 270L423.3 270L423.3 240.9L435.0 240.9Q438.2 240.9 440.3 241.9Q442.5 242.8 443.6 244.5Q444.6 246.2 444.6 248.4L444.6 248.4Q444.6 250.1 444.0 251.4Q443.3 252.6 442.1 253.5Q440.9 254.3 439.4 254.6L439.4 254.6L439.4 254.9Q441.0 255.0 442.5 255.8Q444.0 256.7 444.9 258.3Q445.8 259.8 445.8 262.0L445.8 262.0Q445.8 264.3 444.6 266.1Q443.5 267.9 441.3 268.9Q439.0 270 435.8 270L435.8 270ZM429.5 257.2L429.5 265.0L434.5 265.0Q437.1 265.0 438.3 264.0Q439.4 263.0 439.4 261.3L439.4 261.3Q439.4 260.1 438.8 259.2Q438.3 258.3 437.2 257.8Q436.1 257.2 434.6 257.2L434.6 257.2L429.5 257.2ZM429.5 245.9L429.5 253.1L434.0 253.1Q435.3 253.1 436.3 252.6Q437.3 252.2 437.9 251.4Q438.4 250.5 438.4 249.4L438.4 249.4Q438.4 247.8 437.3 246.8Q436.2 245.9 434.2 245.9L434.2 245.9L429.5 245.9ZM449.7 240.9L455.7 240.9L455.7 270L449.7 270L449.7 240.9ZM470.4 270.4L470.4 270.4Q467.1 270.4 464.7 269.0Q462.3 267.6 461.0 265.1Q459.7 262.5 459.7 259.2L459.7 259.2Q459.7 255.8 461.0 253.3Q462.3 250.7 464.7 249.3Q467.1 247.9 470.4 247.9L470.4 247.9Q473.7 247.9 476.1 249.3Q478.5 250.7 479.8 253.3Q481.1 255.8 481.1 259.2L481.1 259.2Q481.1 262.5 479.8 265.1Q478.5 267.6 476.1 269.0Q473.7 270.4 470.4 270.4ZM470.4 265.7L470.4 265.7Q471.9 265.7 472.9 264.9Q473.9 264.0 474.5 262.5Q475.0 261.0 475.0 259.1L475.0 259.1Q475.0 257.2 474.5 255.7Q473.9 254.2 472.9 253.4Q471.9 252.5 470.4 252.5L470.4 252.5Q468.9 252.5 467.9 253.4Q466.8 254.2 466.3 255.7Q465.8 257.2 465.8 259.1L465.8 259.1Q465.8 261.0 466.3 262.5Q466.8 264.0 467.9 264.9Q468.9 265.7 470.4 265.7ZM494.9 278.6L494.9 278.6Q492.0 278.6 489.9 277.8Q487.8 277.0 486.5 275.7Q485.3 274.3 484.9 272.6L484.9 272.6L490.5 271.8Q490.8 272.5 491.3 273.0Q491.9 273.6 492.8 273.9Q493.7 274.3 495.1 274.3L495.1 274.3Q497.0 274.3 498.3 273.3Q499.6 272.4 499.6 270.1L499.6 270.1L499.6 266.1L499.3 266.1Q498.9 267.0 498.2 267.9Q497.4 268.7 496.1 269.2Q494.9 269.7 493.1 269.7L493.1 269.7Q490.7 269.7 488.7 268.5Q486.6 267.4 485.5 265.0Q484.3 262.7 484.3 259.0L484.3 259.0Q484.3 255.3 485.5 252.9Q486.7 250.4 488.7 249.1Q490.7 247.9 493.1 247.9L493.1 247.9Q494.9 247.9 496.2 248.5Q497.4 249.1 498.2 250.0Q498.9 251.0 499.3 251.8L499.3 251.8L499.6 251.8L499.6 248.2L505.6 248.2L505.6 270.2Q505.6 273.0 504.2 274.9Q502.9 276.7 500.4 277.7Q498.0 278.6 494.9 278.6ZM495.0 265.1L495.0 265.1Q496.5 265.1 497.5 264.4Q498.5 263.7 499.1 262.3Q499.6 260.9 499.6 259.0L499.6 259.0Q499.6 257.1 499.1 255.7Q498.5 254.3 497.5 253.5Q496.5 252.7 495.0 252.7L495.0 252.7Q493.5 252.7 492.5 253.5Q491.5 254.3 491.0 255.7Q490.5 257.2 490.5 259.0L490.5 259.0Q490.5 260.9 491.0 262.3Q491.5 263.7 492.5 264.4Q493.5 265.1 495.0 265.1Z "/></g></svg>